<svg width="310" height="424" viewBox="0 0 310 424" fill="none" xmlns="http://www.w3.org/2000/svg">
<path fill-rule="evenodd" clip-rule="evenodd" d="M126.296 21.25C130.041 8.94976 141.475 0 155 0C168.525 0 179.959 8.94976 183.704 21.25H290C301.046 21.25 310 30.2043 310 41.25V56C310 58.2091 308.209 60 306 60H155H4C1.79086 60 0 58.2091 0 56V41.25C0 30.2043 8.9543 21.25 20 21.25H126.296Z" fill="white"/>
<path fill-rule="evenodd" clip-rule="evenodd" d="M10.6879 68.75C8.31502 68.75 6.46381 70.8039 6.7094 73.164L40.3265 396.23C41.9169 411.514 54.7989 423.125 70.1654 423.125H238.679C254.006 423.125 266.868 411.573 268.507 396.334L303.274 73.1779C303.528 70.813 301.675 68.75 299.297 68.75H10.6879ZM155 107.5C144.645 107.5 136.25 115.895 136.25 126.25V325C136.25 335.355 144.645 343.75 155 343.75C165.355 343.75 173.75 335.355 173.75 325V126.25C173.75 115.895 165.355 107.5 155 107.5ZM91.4529 126.438C90.6377 116.115 81.6083 108.407 71.2851 109.222C60.9619 110.037 53.2541 119.067 54.0693 129.39L69.7146 327.523C70.5298 337.846 79.5592 345.554 89.8824 344.739C100.206 343.924 107.913 334.894 107.098 324.571L91.4529 126.438ZM238.539 108.976C228.216 108.161 219.187 115.869 218.372 126.192L202.726 324.325C201.911 334.648 209.619 343.678 219.942 344.493C230.265 345.308 239.295 337.6 240.11 327.277L255.755 129.144C256.57 118.821 248.863 109.791 238.539 108.976Z" fill="white"/>
</svg>
